<?xml version="1.0" encoding="utf-8"?>
<!-- Generator: Adobe Illustrator 24.1.0, SVG Export Plug-In . SVG Version: 6.00 Build 0)  -->
<svg version="1.1" id="Layer_1" xmlns="http://www.w3.org/2000/svg" xmlns:xlink="http://www.w3.org/1999/xlink" x="0px" y="0px"
	 viewBox="0 0 30 30" style="enable-background:new 0 0 30 30;" xml:space="preserve">
<style type="text/css">
	.st0{fill:none;stroke:#3399FF;stroke-linecap:round;stroke-linejoin:round;}
</style>
<g id="Interface-Essential__x2F__Lock_x2F_Unlock__x2F__lock-6">
	<g id="Group_130">
		<g id="lock-6">
			<path id="Oval_101" class="st0" d="M15.2,21.1c1.1,0,2-0.9,2-2c0-1.1-0.9-2-2-2c-1.1,0-2,0.9-2,2C13.2,20.2,14.1,21.1,15.2,21.1z
				"/>
			<path id="Shape_777" class="st0" d="M23.7,16.6c0-2.2-1.8-4-4-4h-9c-2.2,0-4,1.8-4,4v6c0,2.2,1.8,4,4,4h9c2.2,0,4-1.8,4-4V16.6z"
				/>
			<path id="Shape_778" class="st0" d="M9.7,12.7V9.1c0-3,2.5-5.5,5.5-5.5c3,0,5.5,2.5,5.5,5.5v3.6"/>
		</g>
	</g>
</g>
</svg>
