<?xml version="1.0" encoding="utf-8"?>
<!-- Generator: Adobe Illustrator 24.1.0, SVG Export Plug-In . SVG Version: 6.00 Build 0)  -->
<svg version="1.1" id="Layer_1" xmlns="http://www.w3.org/2000/svg" xmlns:xlink="http://www.w3.org/1999/xlink" x="0px" y="0px"
	 viewBox="0 0 30 30" style="enable-background:new 0 0 30 30;" xml:space="preserve">
<style type="text/css">
	.st0{fill:#3399FF;stroke:#3399FF;stroke-width:0.25;stroke-linecap:round;stroke-linejoin:round;}
	.st1{fill:#3399FF;}
	.st2{font-family:'SofiaProMedium';}
	.st3{font-size:9px;}
</style>
<path class="st0" d="M3.3,16.8h1.2c0.3,0.6,0.7,1.2,1.2,1.7c0.9,1,1.5,2.4,1.4,3.8c0,0.7,0.6,1.3,1.3,1.3h1.4c0.7,0,1.3-0.6,1.3-1.3
	c0-0.4,0.3-0.7,0.7-0.7h2.6c0.4,0,0.7,0.3,0.7,0.7c0,0.7,0.6,1.3,1.3,1.3h0.6c0.4,0.8,0.9,1.4,1.5,1.8l3.6,2.4
	c0.1,0.1,0.3,0.1,0.4,0l3.6-2.4c1.1-0.7,1.9-2.3,1.9-3.6v-5c0-0.1-0.1-0.2-0.2-0.3l-3.7-1.8c0-0.3,0.1-0.7,0.1-1.1
	c0-0.1,0-0.2,0-0.3c1.2-0.1,2.1-1.1,2.1-2.3c0-0.2-0.1-0.3-0.3-0.3c-0.2,0-0.3,0.1-0.3,0.3c0,0.8-0.6,1.6-1.5,1.7
	C23.8,8.4,19.8,5,14.9,5c-0.6,0-1.2,0-1.8,0.1c-0.8-1.3-2.2-2-3.7-2C9.2,3.1,9,3.3,9,3.5c0,0,0,0.1,0,0.1l0.1,0.3
	C9.4,4.6,9.4,5.3,9.4,6C7.5,6.7,6,8,4.9,9.7l-0.4,0.7H3.3c-0.6,0-1,0.5-1,1v4.4C2.3,16.3,2.8,16.8,3.3,16.8L3.3,16.8z M27.5,21.9
	c0,1.1-0.8,2.5-1.6,3.1l-3.4,2.3L19.1,25c-0.5-0.3-1-0.9-1.3-1.6c-0.2-0.5-0.4-1.1-0.4-1.5V17l5-2.5l1.3,0.6l0,0l3.7,1.8L27.5,21.9z
	 M3,11.4C3,11.2,3.1,11,3.3,11h1.3C4.8,11,4.9,11,5,10.9l0.5-0.8c1-1.6,2.5-2.8,4.3-3.5c0.1,0,0.2-0.1,0.2-0.3
	c0.1-0.8,0-1.7-0.2-2.5c1.9,0.2,3.4,1.9,3.4,3.8c0,0.2,0.1,0.3,0.3,0.3c0.2,0,0.3-0.1,0.3-0.3l0,0c0-0.6-0.1-1.3-0.4-1.8
	c0.5-0.1,0.9-0.1,1.4-0.1c4.9,0,8.9,3.6,8.9,8c0,0.2,0,0.5,0,0.7l-1-0.5c-0.1,0-0.2,0-0.3,0L17,16.5c-0.1,0.1-0.2,0.2-0.2,0.3v5
	c0,0.4,0.1,0.8,0.2,1.1h-0.4c-0.4,0-0.7-0.3-0.7-0.7c0-0.7-0.6-1.3-1.3-1.3H12c-0.7,0-1.3,0.6-1.3,1.3c0,0.4-0.3,0.7-0.7,0.7H8.5
	c-0.4,0-0.7-0.3-0.7-0.7c0-1.6-0.6-3.1-1.6-4.2C5.7,17.6,5.3,17,5,16.3c-0.1-0.1-0.2-0.2-0.3-0.2H3.3C3.1,16.1,3,16,3,15.8L3,11.4z"
	/>
<text transform="matrix(1 0 0 1 20.3135 23.9287)" class="st1 st2 st3">$</text>
</svg>
