<?xml version="1.0" encoding="utf-8"?>
<!-- Generator: Adobe Illustrator 24.1.0, SVG Export Plug-In . SVG Version: 6.00 Build 0)  -->
<svg version="1.1" id="Layer_1" xmlns="http://www.w3.org/2000/svg" xmlns:xlink="http://www.w3.org/1999/xlink" x="0px" y="0px"
	 viewBox="0 0 30 30" style="enable-background:new 0 0 30 30;" xml:space="preserve">
<style type="text/css">
	.st0{fill:none;stroke:#3399FF;stroke-linecap:round;stroke-linejoin:round;}
</style>
<g id="Images-Photography__x2F__Retouching_x2F_Enhancing__x2F__retouch-graph">
	<g id="Group_55">
		<g id="retouch-graph">
			<path id="Shape_258" class="st0" d="M5.5,3.5v21h21"/>
			<path id="Oval_54" class="st0" d="M13.5,21.5c1.1,0,2-0.9,2-2c0-1.1-0.9-2-2-2c-1.1,0-2,0.9-2,2C11.5,20.6,12.4,21.5,13.5,21.5z"
				/>
			<path id="Oval_55" class="st0" d="M20.5,9.5c1.1,0,2-0.9,2-2s-0.9-2-2-2c-1.1,0-2,0.9-2,2S19.4,9.5,20.5,9.5z"/>
			<path id="Shape_259" class="st0" d="M22,6.2c1.2-1.1,2.8-1.7,4.5-1.7"/>
			<path id="Shape_260" class="st0" d="M14.9,18.1c0.9-1.3,1.6-2.7,2.1-4.1c0.6-1.7,1.4-3.3,2.4-4.9"/>
			<path id="Shape_261" class="st0" d="M5.5,24.5c0,0,3.1-0.2,6.8-3.4"/>
			<path id="Shape_262" class="st0" d="M3.5,5.5l2-2l2,2"/>
			<path id="Shape_263" class="st0" d="M24.5,22.5l2,2l-2,2"/>
		</g>
	</g>
</g>
</svg>
